<svg width="856" height="856" viewBox="0 0 856 856" fill="none" xmlns="http://www.w3.org/2000/svg">
<rect x="157.387" y="65.1895" width="640" height="640" transform="rotate(8.28274 157.387 65.1895)" fill="#777777"/>
<rect x="45.3315" y="186.283" width="640" height="640" transform="rotate(-12.7229 45.3315 186.283)" fill="#F5F076"/>
<rect y="280.781" width="640" height="640" transform="rotate(-26.0223 0 280.781)" fill="#E52899"/>
<rect x="265.948" y="5.39258" width="640" height="640" transform="rotate(24.024 265.948 5.39258)" fill="#00EB76"/>
<rect x="107.95" y="107.951" width="640" height="640" fill="white"/>
<path opacity="0.9" d="M293.857 675.185H187.95V322.161H293.857V675.185ZM682.184 286.858H646.881L435.067 569.277H682.184V675.185H329.16V569.277L540.975 286.858H329.16V180.951H682.184V286.858ZM293.857 286.858H187.95V180.951H293.857V286.858Z" fill="#F8F8F8"/>
<path opacity="0.9" d="M292.857 674.185H186.95V321.161H292.857V674.185ZM681.184 285.858H645.881L434.067 568.277H681.184V674.185H328.16V568.277L539.975 285.858H328.16V179.951H681.184V285.858ZM292.857 285.858H186.95V179.951H292.857V285.858Z" fill="#1C1B1B"/>
</svg>
