<svg width="32" height="32" viewBox="0 0 32 32" fill="none" xmlns="http://www.w3.org/2000/svg">
<rect width="32" height="32" fill="url(#paint0_linear_320_201)"/>
<g filter="url(#filter0_di_320_201)">
<circle cx="7.99414" cy="8" r="1.95" fill="url(#paint1_linear_320_201)" stroke="#F6F6F3" stroke-width="0.1"/>
<rect x="6.04414" y="11.05" width="3.9" height="13.9" rx="0.95" fill="url(#paint2_linear_320_201)" stroke="#F6F6F3" stroke-width="0.1"/>
<mask id="path-4-inside-1_320_201" fill="white">
<path d="M25.994 9.21059C25.994 9.64657 25.6406 10 25.2046 10C24.9575 10 24.7247 10.1157 24.5754 10.3126L17.36 19.8335C16.8609 20.4921 17.3306 21.4375 18.157 21.4375H25.3729C25.9252 21.4375 26.3729 21.8852 26.3729 22.4375V24C26.3729 24.5523 25.9252 25 25.3729 25H11.9354C11.3831 25 10.9354 24.5523 10.9354 24V21.4397C10.9354 21.4385 10.9364 21.4375 10.9376 21.4375C10.9398 21.4375 10.9407 21.4348 10.939 21.4335L10.9347 21.4302C10.9329 21.4288 10.9326 21.4263 10.9339 21.4245L18.3769 11.604C18.8761 10.9454 18.4063 10 17.58 10H11.994C11.4417 10 10.994 9.55228 10.994 9V7C10.994 6.44772 11.4417 6 11.994 6H24.994C25.5463 6 25.994 6.44772 25.994 7V9.21059Z"/>
</mask>
<path d="M25.994 9.21059C25.994 9.64657 25.6406 10 25.2046 10C24.9575 10 24.7247 10.1157 24.5754 10.3126L17.36 19.8335C16.8609 20.4921 17.3306 21.4375 18.157 21.4375H25.3729C25.9252 21.4375 26.3729 21.8852 26.3729 22.4375V24C26.3729 24.5523 25.9252 25 25.3729 25H11.9354C11.3831 25 10.9354 24.5523 10.9354 24V21.4397C10.9354 21.4385 10.9364 21.4375 10.9376 21.4375C10.9398 21.4375 10.9407 21.4348 10.939 21.4335L10.9347 21.4302C10.9329 21.4288 10.9326 21.4263 10.9339 21.4245L18.3769 11.604C18.8761 10.9454 18.4063 10 17.58 10H11.994C11.4417 10 10.994 9.55228 10.994 9V7C10.994 6.44772 11.4417 6 11.994 6H24.994C25.5463 6 25.994 6.44772 25.994 7V9.21059Z" fill="url(#paint3_linear_320_201)"/>
<path fill-rule="evenodd" clip-rule="evenodd" d="M10.9347 21.4302L10.9957 21.3509L10.9347 21.4302ZM10.9339 21.4245L11.0136 21.4849L10.9339 21.4245ZM10.939 21.4335L11 21.3542L10.939 21.4335ZM17.36 19.8335L17.2803 19.7731L17.36 19.8335ZM24.5754 10.3126L24.4957 10.2522L24.5754 10.3126ZM24.5754 10.3126L24.4957 10.2522L17.2803 19.7731L17.36 19.8335L17.4397 19.8939L24.6551 10.373L24.5754 10.3126ZM18.157 21.4375V21.5375H25.3729V21.4375V21.3375H18.157V21.4375ZM26.3729 22.4375H26.2729V24H26.3729H26.4729V22.4375H26.3729ZM25.3729 25V24.9H11.9354V25V25.1H25.3729V25ZM10.9354 24H11.0354V21.4397H10.9354H10.8354V24H10.9354ZM10.939 21.4335L11 21.3542L10.9957 21.3509L10.9347 21.4302L10.8737 21.5095L10.878 21.5128L10.939 21.4335ZM10.9339 21.4245L11.0136 21.4849L18.4566 11.6644L18.3769 11.604L18.2972 11.5436L10.8542 21.3641L10.9339 21.4245ZM17.58 10V9.9H11.994V10V10.1H17.58V10ZM10.994 9H11.094V7H10.994H10.894V9H10.994ZM11.994 6V6.1H24.994V6V5.9H11.994V6ZM25.994 7H25.894V9.21059H25.994H26.094V7H25.994ZM24.994 6V6.1C25.491 6.1 25.894 6.50294 25.894 7H25.994H26.094C26.094 6.39249 25.6015 5.9 24.994 5.9V6ZM10.994 7H11.094C11.094 6.50294 11.4969 6.1 11.994 6.1V6V5.9C11.3865 5.9 10.894 6.39249 10.894 7H10.994ZM11.994 10V9.9C11.4969 9.9 11.094 9.49706 11.094 9H10.994H10.894C10.894 9.60751 11.3865 10.1 11.994 10.1V10ZM18.3769 11.604L18.4566 11.6644C19.0057 10.94 18.489 9.9 17.58 9.9V10V10.1C18.3237 10.1 18.7465 10.9509 18.2972 11.5436L18.3769 11.604ZM10.9347 21.4302L10.9957 21.3509C11.0374 21.3831 11.0455 21.4429 11.0136 21.4849L10.9339 21.4245L10.8542 21.3641C10.8197 21.4097 10.8284 21.4746 10.8737 21.5095L10.9347 21.4302ZM10.9376 21.4375V21.5375C11.0352 21.5375 11.0773 21.4138 11 21.3542L10.939 21.4335L10.878 21.5128C10.804 21.4558 10.8443 21.3375 10.9376 21.3375V21.4375ZM10.9354 21.4397H11.0354C11.0354 21.4937 10.9916 21.5375 10.9376 21.5375V21.4375V21.3375C10.8812 21.3375 10.8354 21.3833 10.8354 21.4397H10.9354ZM11.9354 25V24.9C11.4383 24.9 11.0354 24.4971 11.0354 24H10.9354H10.8354C10.8354 24.6075 11.3279 25.1 11.9354 25.1V25ZM26.3729 24H26.2729C26.2729 24.4971 25.87 24.9 25.3729 24.9V25V25.1C25.9804 25.1 26.4729 24.6075 26.4729 24H26.3729ZM25.3729 21.4375V21.5375C25.87 21.5375 26.2729 21.9404 26.2729 22.4375H26.3729H26.4729C26.4729 21.83 25.9804 21.3375 25.3729 21.3375V21.4375ZM17.36 19.8335L17.2803 19.7731C16.7313 20.4976 17.248 21.5375 18.157 21.5375V21.4375V21.3375C17.4132 21.3375 16.9905 20.4866 17.4397 19.8939L17.36 19.8335ZM25.2046 10V9.9C24.9262 9.9 24.6639 10.0303 24.4957 10.2522L24.5754 10.3126L24.6551 10.373C24.7855 10.201 24.9888 10.1 25.2046 10.1V10ZM25.2046 10V10.1C25.6958 10.1 26.094 9.7018 26.094 9.21059H25.994H25.894C25.894 9.59134 25.5853 9.9 25.2046 9.9V10Z" fill="#F6F6F3" mask="url(#path-4-inside-1_320_201)"/>
</g>
<g filter="url(#filter1_di_320_201)">
<circle cx="7.99414" cy="8" r="1.95" fill="url(#paint4_linear_320_201)" stroke="#F6F6F3" stroke-width="0.1"/>
<rect x="6.04414" y="11.05" width="3.9" height="13.9" rx="0.95" fill="url(#paint5_linear_320_201)" stroke="#F6F6F3" stroke-width="0.1"/>
<mask id="path-8-inside-2_320_201" fill="white">
<path d="M25.9945 9.20994C25.9945 9.64628 25.6408 10 25.2044 10C24.9571 10 24.7241 10.1158 24.5748 10.3129L17.3595 19.8335C16.8604 20.4921 17.3301 21.4375 18.1565 21.4375H25.3734C25.9257 21.4375 26.3734 21.8852 26.3734 22.4375V24C26.3734 24.5523 25.9257 25 25.3734 25H11.9359C11.3836 25 10.9359 24.5523 10.9359 24V21.4397C10.9359 21.4385 10.9369 21.4375 10.9381 21.4375C10.9402 21.4375 10.9412 21.4348 10.9395 21.4335L10.9352 21.4302C10.9334 21.4288 10.9331 21.4263 10.9344 21.4245L18.3766 11.604C18.8757 10.9454 18.406 10 17.5796 10H11.9945C11.4422 10 10.9945 9.55228 10.9945 9V7C10.9945 6.44772 11.4422 6 11.9945 6H24.9945C25.5468 6 25.9945 6.44772 25.9945 7V9.20994Z"/>
</mask>
<path d="M25.9945 9.20994C25.9945 9.64628 25.6408 10 25.2044 10C24.9571 10 24.7241 10.1158 24.5748 10.3129L17.3595 19.8335C16.8604 20.4921 17.3301 21.4375 18.1565 21.4375H25.3734C25.9257 21.4375 26.3734 21.8852 26.3734 22.4375V24C26.3734 24.5523 25.9257 25 25.3734 25H11.9359C11.3836 25 10.9359 24.5523 10.9359 24V21.4397C10.9359 21.4385 10.9369 21.4375 10.9381 21.4375C10.9402 21.4375 10.9412 21.4348 10.9395 21.4335L10.9352 21.4302C10.9334 21.4288 10.9331 21.4263 10.9344 21.4245L18.3766 11.604C18.8757 10.9454 18.406 10 17.5796 10H11.9945C11.4422 10 10.9945 9.55228 10.9945 9V7C10.9945 6.44772 11.4422 6 11.9945 6H24.9945C25.5468 6 25.9945 6.44772 25.9945 7V9.20994Z" fill="url(#paint6_linear_320_201)"/>
<path fill-rule="evenodd" clip-rule="evenodd" d="M10.9352 21.4302L10.8742 21.5095L10.9352 21.4302ZM10.9344 21.4245L11.0141 21.4849L10.9344 21.4245ZM10.9395 21.4335L10.8785 21.5128L10.9395 21.4335ZM17.3595 19.8335L17.2798 19.7731L17.3595 19.8335ZM24.5748 10.3129L24.6545 10.3733L24.5748 10.3129ZM24.5748 10.3129L24.4951 10.2525L17.2798 19.7731L17.3595 19.8335L17.4392 19.8939L24.6545 10.3733L24.5748 10.3129ZM18.1565 21.4375V21.5375H25.3734V21.4375V21.3375H18.1565V21.4375ZM26.3734 22.4375H26.2734V24H26.3734H26.4734V22.4375H26.3734ZM25.3734 25V24.9H11.9359V25V25.1H25.3734V25ZM10.9359 24H11.0359V21.4397H10.9359H10.8359V24H10.9359ZM10.9395 21.4335L11.0004 21.3542L10.9962 21.3509L10.9352 21.4302L10.8742 21.5095L10.8785 21.5128L10.9395 21.4335ZM10.9344 21.4245L11.0141 21.4849L18.4563 11.6644L18.3766 11.604L18.2969 11.5436L10.8547 21.3641L10.9344 21.4245ZM17.5796 10V9.9H11.9945V10V10.1H17.5796V10ZM10.9945 9H11.0945V7H10.9945H10.8945V9H10.9945ZM11.9945 6V6.1H24.9945V6V5.9H11.9945V6ZM25.9945 7H25.8945V9.20994H25.9945H26.0945V7H25.9945ZM24.9945 6V6.1C25.4915 6.1 25.8945 6.50294 25.8945 7H25.9945H26.0945C26.0945 6.39249 25.602 5.9 24.9945 5.9V6ZM10.9945 7H11.0945C11.0945 6.50294 11.4974 6.1 11.9945 6.1V6V5.9C11.387 5.9 10.8945 6.39249 10.8945 7H10.9945ZM11.9945 10V9.9C11.4974 9.9 11.0945 9.49706 11.0945 9H10.9945H10.8945C10.8945 9.60751 11.387 10.1 11.9945 10.1V10ZM18.3766 11.604L18.4563 11.6644C19.0053 10.9399 18.4886 9.9 17.5796 9.9V10V10.1C18.3233 10.1 18.7461 10.9508 18.2969 11.5436L18.3766 11.604ZM10.9352 21.4302L10.9962 21.3509C11.0379 21.3831 11.046 21.4429 11.0141 21.4849L10.9344 21.4245L10.8547 21.3641C10.8202 21.4097 10.8289 21.4746 10.8742 21.5095L10.9352 21.4302ZM10.9381 21.4375V21.5375C11.0357 21.5375 11.0778 21.4138 11.0004 21.3542L10.9395 21.4335L10.8785 21.5128C10.8045 21.4558 10.8448 21.3375 10.9381 21.3375V21.4375ZM10.9359 21.4397H11.0359C11.0359 21.4937 10.9921 21.5375 10.9381 21.5375V21.4375V21.3375C10.8817 21.3375 10.8359 21.3833 10.8359 21.4397H10.9359ZM11.9359 25V24.9C11.4388 24.9 11.0359 24.4971 11.0359 24H10.9359H10.8359C10.8359 24.6075 11.3284 25.1 11.9359 25.1V25ZM26.3734 24H26.2734C26.2734 24.4971 25.8704 24.9 25.3734 24.9V25V25.1C25.9809 25.1 26.4734 24.6075 26.4734 24H26.3734ZM25.3734 21.4375V21.5375C25.8704 21.5375 26.2734 21.9404 26.2734 22.4375H26.3734H26.4734C26.4734 21.83 25.9809 21.3375 25.3734 21.3375V21.4375ZM17.3595 19.8335L17.2798 19.7731C16.7308 20.4976 17.2475 21.5375 18.1565 21.5375V21.4375V21.3375C17.4128 21.3375 16.99 20.4866 17.4392 19.8939L17.3595 19.8335ZM25.2044 10V9.9C24.9258 9.9 24.6633 10.0304 24.4951 10.2525L24.5748 10.3129L24.6545 10.3733C24.7849 10.2011 24.9884 10.1 25.2044 10.1V10ZM25.2044 10V10.1C25.696 10.1 26.0945 9.70151 26.0945 9.20994H25.9945H25.8945C25.8945 9.59105 25.5855 9.9 25.2044 9.9V10Z" fill="#F6F6F3" mask="url(#path-8-inside-2_320_201)"/>
</g>
<defs>
<filter id="filter0_di_320_201" x="4.99414" y="6" width="22.3789" height="21" filterUnits="userSpaceOnUse" color-interpolation-filters="sRGB">
<feFlood flood-opacity="0" result="BackgroundImageFix"/>
<feColorMatrix in="SourceAlpha" type="matrix" values="0 0 0 0 0 0 0 0 0 0 0 0 0 0 0 0 0 0 127 0" result="hardAlpha"/>
<feOffset dy="1"/>
<feGaussianBlur stdDeviation="0.5"/>
<feComposite in2="hardAlpha" operator="out"/>
<feColorMatrix type="matrix" values="0 0 0 0 0 0 0 0 0 0 0 0 0 0 0 0 0 0 0.18 0"/>
<feBlend mode="normal" in2="BackgroundImageFix" result="effect1_dropShadow_320_201"/>
<feBlend mode="normal" in="SourceGraphic" in2="effect1_dropShadow_320_201" result="shape"/>
<feColorMatrix in="SourceAlpha" type="matrix" values="0 0 0 0 0 0 0 0 0 0 0 0 0 0 0 0 0 0 127 0" result="hardAlpha"/>
<feOffset/>
<feGaussianBlur stdDeviation="1"/>
<feComposite in2="hardAlpha" operator="arithmetic" k2="-1" k3="1"/>
<feColorMatrix type="matrix" values="0 0 0 0 0.973863 0 0 0 0 0.987538 0 0 0 0 0.167034 0 0 0 0.25 0"/>
<feBlend mode="normal" in2="shape" result="effect2_innerShadow_320_201"/>
</filter>
<filter id="filter1_di_320_201" x="4.99414" y="6" width="22.3794" height="21" filterUnits="userSpaceOnUse" color-interpolation-filters="sRGB">
<feFlood flood-opacity="0" result="BackgroundImageFix"/>
<feColorMatrix in="SourceAlpha" type="matrix" values="0 0 0 0 0 0 0 0 0 0 0 0 0 0 0 0 0 0 127 0" result="hardAlpha"/>
<feOffset dy="1"/>
<feGaussianBlur stdDeviation="0.5"/>
<feComposite in2="hardAlpha" operator="out"/>
<feColorMatrix type="matrix" values="0 0 0 0 0 0 0 0 0 0 0 0 0 0 0 0 0 0 0.18 0"/>
<feBlend mode="normal" in2="BackgroundImageFix" result="effect1_dropShadow_320_201"/>
<feBlend mode="normal" in="SourceGraphic" in2="effect1_dropShadow_320_201" result="shape"/>
<feColorMatrix in="SourceAlpha" type="matrix" values="0 0 0 0 0 0 0 0 0 0 0 0 0 0 0 0 0 0 127 0" result="hardAlpha"/>
<feOffset/>
<feGaussianBlur stdDeviation="1"/>
<feComposite in2="hardAlpha" operator="arithmetic" k2="-1" k3="1"/>
<feColorMatrix type="matrix" values="0 0 0 0 0.973863 0 0 0 0 0.987538 0 0 0 0 0.167034 0 0 0 0.25 0"/>
<feBlend mode="normal" in2="shape" result="effect2_innerShadow_320_201"/>
</filter>
<linearGradient id="paint0_linear_320_201" x1="25.7507" y1="5.27952" x2="7.22468" y2="20.5216" gradientUnits="userSpaceOnUse">
<stop stop-color="#542CFF"/>
<stop offset="1" stop-color="#9D8FDA"/>
</linearGradient>
<linearGradient id="paint1_linear_320_201" x1="9.21298" y1="6.65994" x2="6.89723" y2="8.5652" gradientUnits="userSpaceOnUse">
<stop stop-color="#542CFF"/>
<stop offset="1" stop-color="#9D8FDA"/>
</linearGradient>
<linearGradient id="paint2_linear_320_201" x1="9.21298" y1="13.3098" x2="5.53303" y2="14.1748" gradientUnits="userSpaceOnUse">
<stop stop-color="#542CFF"/>
<stop offset="1" stop-color="#9D8FDA"/>
</linearGradient>
<linearGradient id="paint3_linear_320_201" x1="23.3576" y1="9.13472" x2="12.9987" y2="16.0604" gradientUnits="userSpaceOnUse">
<stop stop-color="#542CFF"/>
<stop offset="1" stop-color="#9D8FDA"/>
</linearGradient>
<linearGradient id="paint4_linear_320_201" x1="5.99132" y1="5.99544" x2="9.99218" y2="9.9963" gradientUnits="userSpaceOnUse">
<stop stop-color="white"/>
<stop offset="1" stop-color="#D1C9C7"/>
</linearGradient>
<linearGradient id="paint5_linear_320_201" x1="5.99132" y1="10.984" x2="13.3891" y2="13.0977" gradientUnits="userSpaceOnUse">
<stop stop-color="white"/>
<stop offset="1" stop-color="#D1C9C7"/>
</linearGradient>
<linearGradient id="paint6_linear_320_201" x1="10.9227" y1="5.97833" x2="29.5249" y2="21.0949" gradientUnits="userSpaceOnUse">
<stop stop-color="white"/>
<stop offset="1" stop-color="#D1C9C7"/>
</linearGradient>
</defs>
</svg>
