<svg width="32" height="32" viewBox="0 0 32 32" fill="none" xmlns="http://www.w3.org/2000/svg">
<rect width="32" height="32" rx="16" fill="url(#paint0_linear_319_186)"/>
<g filter="url(#filter0_di_319_186)">
<circle cx="7.99414" cy="8" r="1.95" fill="url(#paint1_linear_319_186)" stroke="#F6F6F3" stroke-width="0.1"/>
<rect x="6.04414" y="11.05" width="3.9" height="13.9" rx="0.95" fill="url(#paint2_linear_319_186)" stroke="#F6F6F3" stroke-width="0.1"/>
<mask id="path-4-inside-1_319_186" fill="white">
<path d="M25.9941 9.21058C25.9941 9.64656 25.6407 10 25.2047 10C24.9576 10 24.7248 10.1157 24.5756 10.3126L17.3593 19.8335C16.8602 20.492 17.3299 21.4375 18.1563 21.4375H25.373C25.9253 21.4375 26.373 21.8852 26.373 22.4375V24C26.373 24.5523 25.9253 25 25.373 25H11.9355C11.3833 25 10.9355 24.5523 10.9355 24V21.4397C10.9355 21.4385 10.9365 21.4375 10.9378 21.4375C10.9399 21.4375 10.9408 21.4348 10.9391 21.4335L10.9348 21.4302C10.9331 21.4288 10.9327 21.4263 10.9341 21.4245L18.3763 11.604C18.8754 10.9454 18.4056 10 17.5793 10H11.9941C11.4419 10 10.9941 9.55228 10.9941 9V7C10.9941 6.44772 11.4419 6 11.9941 6H24.9941C25.5464 6 25.9941 6.44772 25.9941 7V9.21058Z"/>
</mask>
<path d="M25.9941 9.21058C25.9941 9.64656 25.6407 10 25.2047 10C24.9576 10 24.7248 10.1157 24.5756 10.3126L17.3593 19.8335C16.8602 20.492 17.3299 21.4375 18.1563 21.4375H25.373C25.9253 21.4375 26.373 21.8852 26.373 22.4375V24C26.373 24.5523 25.9253 25 25.373 25H11.9355C11.3833 25 10.9355 24.5523 10.9355 24V21.4397C10.9355 21.4385 10.9365 21.4375 10.9378 21.4375C10.9399 21.4375 10.9408 21.4348 10.9391 21.4335L10.9348 21.4302C10.9331 21.4288 10.9327 21.4263 10.9341 21.4245L18.3763 11.604C18.8754 10.9454 18.4056 10 17.5793 10H11.9941C11.4419 10 10.9941 9.55228 10.9941 9V7C10.9941 6.44772 11.4419 6 11.9941 6H24.9941C25.5464 6 25.9941 6.44772 25.9941 7V9.21058Z" fill="url(#paint3_linear_319_186)"/>
<path d="M10.9348 21.4302L10.8739 21.5095L10.9348 21.4302ZM10.9341 21.4245L11.0138 21.4849L10.9341 21.4245ZM10.9391 21.4335L10.8782 21.5128L10.9391 21.4335ZM24.5756 10.3126L24.4959 10.2522L17.2796 19.7731L17.3593 19.8335L17.439 19.8939L24.6553 10.373L24.5756 10.3126ZM18.1563 21.4375V21.5375H25.373V21.4375V21.3375H18.1563V21.4375ZM26.373 22.4375H26.273V24H26.373H26.473V22.4375H26.373ZM25.373 25V24.9H11.9355V25V25.1H25.373V25ZM10.9355 24H11.0355V21.4397H10.9355H10.8355V24H10.9355ZM10.9391 21.4335L11.0001 21.3542L10.9958 21.3509L10.9348 21.4302L10.8739 21.5095L10.8782 21.5128L10.9391 21.4335ZM10.9341 21.4245L11.0138 21.4849L18.456 11.6644L18.3763 11.604L18.2966 11.5436L10.8544 21.3641L10.9341 21.4245ZM17.5793 10V9.9H11.9941V10V10.1H17.5793V10ZM10.9941 9H11.0941V7H10.9941H10.8941V9H10.9941ZM11.9941 6V6.1H24.9941V6V5.9H11.9941V6ZM25.9941 7H25.8941V9.21058H25.9941H26.0941V7H25.9941ZM24.9941 6V6.1C25.4912 6.1 25.8941 6.50294 25.8941 7H25.9941H26.0941C26.0941 6.39249 25.6017 5.9 24.9941 5.9V6ZM10.9941 7H11.0941C11.0941 6.50294 11.4971 6.1 11.9941 6.1V6V5.9C11.3866 5.9 10.8941 6.39249 10.8941 7H10.9941ZM11.9941 10V9.9C11.4971 9.9 11.0941 9.49706 11.0941 9H10.9941H10.8941C10.8941 9.60751 11.3866 10.1 11.9941 10.1V10ZM18.3763 11.604L18.456 11.6644C19.005 10.9399 18.4882 9.9 17.5793 9.9V10V10.1C18.323 10.1 18.7458 10.9508 18.2966 11.5436L18.3763 11.604ZM10.9348 21.4302L10.9958 21.3509C11.0376 21.3831 11.0456 21.4429 11.0138 21.4849L10.9341 21.4245L10.8544 21.3641C10.8198 21.4097 10.8285 21.4746 10.8739 21.5095L10.9348 21.4302ZM10.9378 21.4375V21.5375C11.0354 21.5375 11.0775 21.4138 11.0001 21.3542L10.9391 21.4335L10.8782 21.5128C10.8042 21.4558 10.8444 21.3375 10.9378 21.3375V21.4375ZM10.9355 21.4397H11.0355C11.0355 21.4937 10.9918 21.5375 10.9378 21.5375V21.4375V21.3375C10.8813 21.3375 10.8355 21.3833 10.8355 21.4397H10.9355ZM11.9355 25V24.9C11.4385 24.9 11.0355 24.4971 11.0355 24H10.9355H10.8355C10.8355 24.6075 11.328 25.1 11.9355 25.1V25ZM26.373 24H26.273C26.273 24.4971 25.8701 24.9 25.373 24.9V25V25.1C25.9806 25.1 26.473 24.6075 26.473 24H26.373ZM25.373 21.4375V21.5375C25.8701 21.5375 26.273 21.9404 26.273 22.4375H26.373H26.473C26.473 21.83 25.9806 21.3375 25.373 21.3375V21.4375ZM17.3593 19.8335L17.2796 19.7731C16.7305 20.4975 17.2473 21.5375 18.1563 21.5375V21.4375V21.3375C17.4125 21.3375 16.9898 20.4866 17.439 19.8939L17.3593 19.8335ZM25.2047 10V9.9C24.9263 9.9 24.664 10.0303 24.4959 10.2522L24.5756 10.3126L24.6553 10.373C24.7856 10.201 24.9889 10.1 25.2047 10.1V10ZM25.2047 10V10.1C25.6959 10.1 26.0941 9.70179 26.0941 9.21058H25.9941H25.8941C25.8941 9.59133 25.5855 9.9 25.2047 9.9V10Z" fill="#F6F6F3" mask="url(#path-4-inside-1_319_186)"/>
</g>
<defs>
<filter id="filter0_di_319_186" x="4.99414" y="6" width="22.3789" height="21" filterUnits="userSpaceOnUse" color-interpolation-filters="sRGB">
<feFlood flood-opacity="0" result="BackgroundImageFix"/>
<feColorMatrix in="SourceAlpha" type="matrix" values="0 0 0 0 0 0 0 0 0 0 0 0 0 0 0 0 0 0 127 0" result="hardAlpha"/>
<feOffset dy="1"/>
<feGaussianBlur stdDeviation="0.5"/>
<feComposite in2="hardAlpha" operator="out"/>
<feColorMatrix type="matrix" values="0 0 0 0 0 0 0 0 0 0 0 0 0 0 0 0 0 0 0.18 0"/>
<feBlend mode="normal" in2="BackgroundImageFix" result="effect1_dropShadow_319_186"/>
<feBlend mode="normal" in="SourceGraphic" in2="effect1_dropShadow_319_186" result="shape"/>
<feColorMatrix in="SourceAlpha" type="matrix" values="0 0 0 0 0 0 0 0 0 0 0 0 0 0 0 0 0 0 127 0" result="hardAlpha"/>
<feOffset/>
<feGaussianBlur stdDeviation="1"/>
<feComposite in2="hardAlpha" operator="arithmetic" k2="-1" k3="1"/>
<feColorMatrix type="matrix" values="0 0 0 0 0.973863 0 0 0 0 0.987538 0 0 0 0 0.167034 0 0 0 0.25 0"/>
<feBlend mode="normal" in2="shape" result="effect2_innerShadow_319_186"/>
</filter>
<linearGradient id="paint0_linear_319_186" x1="2.61686e-07" y1="0.65641" x2="8.15257" y2="33.9231" gradientUnits="userSpaceOnUse">
<stop stop-color="#303030"/>
<stop offset="1" stop-color="#0B0B0B"/>
</linearGradient>
<linearGradient id="paint1_linear_319_186" x1="9.21298" y1="6.65994" x2="6.89723" y2="8.5652" gradientUnits="userSpaceOnUse">
<stop stop-color="#542CFF"/>
<stop offset="1" stop-color="#C9C2EB"/>
</linearGradient>
<linearGradient id="paint2_linear_319_186" x1="9.21298" y1="13.3098" x2="5.53303" y2="14.1748" gradientUnits="userSpaceOnUse">
<stop stop-color="#542CFF"/>
<stop offset="1" stop-color="#C9C2EB"/>
</linearGradient>
<linearGradient id="paint3_linear_319_186" x1="23.3575" y1="9.13472" x2="12.9982" y2="16.0614" gradientUnits="userSpaceOnUse">
<stop stop-color="#542CFF"/>
<stop offset="1" stop-color="#C9C2EB"/>
</linearGradient>
</defs>
</svg>
